<svg width="1600" height="164" viewBox="0 0 1600 164" fill="none" xmlns="http://www.w3.org/2000/svg">
<g clip-path="url(#clip0_834_156)">
<rect x="731" y="78" width="30" height="30" rx="15" fill="white"/>
<path fill-rule="evenodd" clip-rule="evenodd" d="M753.871 89.1602C753.986 88.7797 753.871 88.5 753.326 88.5H751.52C751.061 88.5 750.85 88.7416 750.735 89.008C750.735 89.008 749.817 91.2342 748.517 92.6803C748.096 93.0989 747.905 93.232 747.675 93.232C747.561 93.232 747.394 93.0989 747.394 92.7184V89.1602C747.394 88.7035 747.261 88.5 746.879 88.5H744.042C743.755 88.5 743.583 88.7119 743.583 88.9128C743.583 89.3458 744.233 89.4456 744.3 90.6633V93.3083C744.3 93.8882 744.195 93.9934 743.965 93.9934C743.353 93.9934 741.865 91.757 740.982 89.1983C740.809 88.7009 740.635 88.5 740.174 88.5H738.369C737.853 88.5 737.75 88.7416 737.75 89.008C737.75 89.4837 738.362 91.8432 740.599 94.9637C742.091 97.0946 744.193 98.25 746.105 98.25C747.253 98.25 747.394 97.9934 747.394 97.5515V95.9408C747.394 95.4276 747.503 95.3253 747.866 95.3253C748.134 95.3253 748.593 95.4584 749.664 96.4859C750.888 97.7035 751.09 98.25 751.778 98.25H753.583C754.099 98.25 754.357 97.9934 754.208 97.4871C754.045 96.9824 753.461 96.2504 752.686 95.3823C752.265 94.8875 751.634 94.3547 751.443 94.0884C751.175 93.7459 751.251 93.5937 751.443 93.2894C751.443 93.2894 753.642 90.2069 753.871 89.1603V89.1602Z" fill="#222222"/>
<rect x="785" y="78" width="30" height="30" rx="15" fill="white"/>
<path d="M805.442 88.3297C804.122 86.9818 802.297 86.25 800.433 86.25C796.473 86.25 793.289 89.4466 793.328 93.3365C793.328 94.5689 793.677 95.7628 794.26 96.8412L793.25 100.5L797.016 99.5372C798.065 100.115 799.23 100.384 800.394 100.384C804.316 100.384 807.5 97.1878 807.5 93.298C807.5 91.4108 806.762 89.6392 805.442 88.3297ZM800.433 99.1905C799.385 99.1905 798.337 98.9209 797.443 98.3818L797.21 98.2662L794.958 98.8439L795.541 96.6486L795.386 96.4176C793.677 93.6831 794.493 90.0628 797.288 88.3682C800.084 86.6736 803.695 87.4824 805.403 90.2554C807.112 93.0284 806.296 96.6101 803.501 98.3047C802.608 98.8824 801.52 99.1905 800.433 99.1905ZM803.85 94.9155L803.423 94.723C803.423 94.723 802.802 94.4534 802.413 94.2608C802.375 94.2608 802.336 94.2223 802.297 94.2223C802.181 94.2223 802.103 94.2608 802.025 94.2993C802.025 94.2993 801.986 94.3378 801.443 94.9541C801.404 95.0311 801.326 95.0696 801.249 95.0696H801.21C801.171 95.0696 801.093 95.0311 801.054 94.9926L800.86 94.9155C800.433 94.723 800.045 94.4919 799.734 94.1838C799.657 94.1068 799.54 94.0297 799.463 93.9527C799.191 93.6831 798.919 93.375 798.725 93.0284L798.686 92.9514C798.647 92.9128 798.647 92.8743 798.608 92.7973C798.608 92.7203 798.608 92.6432 798.647 92.6047C798.647 92.6047 798.802 92.4122 798.919 92.2966C798.997 92.2196 799.035 92.1041 799.113 92.027C799.191 91.9115 799.23 91.7574 799.191 91.6419C799.152 91.4493 798.686 90.4095 798.569 90.1784C798.492 90.0628 798.414 90.0243 798.298 89.9858H798.181C798.104 89.9858 797.987 89.9858 797.871 89.9858C797.793 89.9858 797.715 90.0243 797.638 90.0243L797.599 90.0628C797.521 90.1014 797.443 90.1784 797.366 90.2169C797.288 90.2939 797.249 90.3709 797.172 90.448C796.9 90.7946 796.745 91.2182 796.745 91.6419C796.745 91.95 796.822 92.2581 796.939 92.5277L796.978 92.6432C797.327 93.375 797.793 94.0297 798.414 94.6074L798.569 94.7615C798.686 94.877 798.802 94.9541 798.88 95.0696C799.696 95.7628 800.627 96.2635 801.676 96.5331C801.792 96.5716 801.948 96.5716 802.064 96.6101C802.181 96.6101 802.336 96.6101 802.452 96.6101C802.646 96.6101 802.879 96.5331 803.035 96.4561C803.151 96.3791 803.229 96.3791 803.307 96.302L803.384 96.225C803.462 96.148 803.54 96.1095 803.617 96.0324C803.695 95.9554 803.772 95.8784 803.811 95.8014C803.889 95.6473 803.928 95.4547 803.967 95.2622C803.967 95.1851 803.967 95.0696 803.967 94.9926C803.967 94.9926 803.928 94.9541 803.85 94.9155Z" fill="#222222"/>
<rect x="839" y="78" width="30" height="30" rx="15" fill="white"/>
<path d="M851.751 93C851.751 91.6193 852.926 90.4998 854.375 90.4998C855.825 90.4998 857.001 91.6193 857.001 93C857.001 94.3807 855.825 95.5002 854.375 95.5002C852.926 95.5002 851.751 94.3807 851.751 93ZM850.331 93C850.331 95.127 852.142 96.8512 854.375 96.8512C856.609 96.8512 858.419 95.127 858.419 93C858.419 90.873 856.609 89.1488 854.375 89.1488C852.142 89.1488 850.331 90.873 850.331 93ZM857.634 88.9961C857.634 89.1741 857.69 89.3482 857.793 89.4962C857.897 89.6443 858.045 89.7597 858.217 89.8279C858.39 89.896 858.58 89.9139 858.763 89.8793C858.947 89.8446 859.115 89.759 859.247 89.6332C859.379 89.5073 859.47 89.347 859.506 89.1724C859.543 88.9979 859.524 88.8169 859.453 88.6524C859.381 88.4879 859.26 88.3473 859.105 88.2484C858.949 88.1494 858.767 88.0966 858.58 88.0965H858.579C858.329 88.0966 858.088 88.1914 857.911 88.3601C857.734 88.5288 857.634 88.7575 857.634 88.9961ZM851.194 99.1048C850.426 99.0715 850.009 98.9497 849.731 98.8468C849.364 98.7105 849.101 98.5481 848.825 98.2858C848.55 98.0235 848.379 97.7739 848.236 97.4237C848.128 97.1597 848 96.7622 847.965 96.031C847.927 95.2404 847.92 95.0029 847.92 93.0001C847.92 90.9972 847.928 90.7604 847.965 89.9692C848 89.2379 848.129 88.8412 848.236 88.5764C848.379 88.2262 848.55 87.9764 848.825 87.7137C849.101 87.451 849.363 87.2884 849.731 87.1527C850.008 87.0497 850.426 86.9279 851.194 86.8947C852.024 86.8583 852.273 86.8511 854.375 86.8511C856.477 86.8511 856.727 86.8589 857.558 86.8947C858.326 86.928 858.742 87.0507 859.02 87.1527C859.388 87.2884 859.65 87.4514 859.926 87.7137C860.202 87.976 860.372 88.2262 860.515 88.5764C860.623 88.8404 860.751 89.2379 860.786 89.9692C860.824 90.7604 860.832 90.9972 860.832 93.0001C860.832 95.0029 860.824 95.2397 860.786 96.031C860.751 96.7622 860.623 97.1596 860.515 97.4237C860.372 97.7739 860.202 98.0237 859.926 98.2858C859.651 98.5479 859.388 98.7105 859.02 98.8468C858.743 98.9498 858.326 99.0716 857.558 99.1048C856.728 99.1412 856.478 99.1484 854.375 99.1484C852.272 99.1484 852.024 99.1412 851.194 99.1048ZM851.128 85.5454C850.29 85.5818 849.717 85.7084 849.217 85.8938C848.699 86.0852 848.26 86.3421 847.822 86.7589C847.384 87.1756 847.115 87.594 846.913 88.0874C846.719 88.5642 846.586 89.1095 846.548 89.9079C846.509 90.7076 846.5 90.9632 846.5 93C846.5 95.0368 846.509 95.2924 846.548 96.0921C846.586 96.8906 846.719 97.4358 846.913 97.9126C847.115 98.4057 847.384 98.8246 847.822 99.2411C848.26 99.6577 848.699 99.9142 849.217 100.106C849.718 100.292 850.29 100.418 851.128 100.455C851.969 100.491 852.237 100.5 854.375 100.5C856.514 100.5 856.782 100.492 857.622 100.455C858.461 100.418 859.033 100.292 859.534 100.106C860.052 99.9142 860.49 99.6579 860.929 99.2411C861.367 98.8244 861.636 98.4057 861.837 97.9126C862.032 97.4358 862.165 96.8905 862.203 96.0921C862.241 95.2918 862.25 95.0368 862.25 93C862.25 90.9632 862.241 90.7076 862.203 89.9079C862.165 89.1094 862.032 88.5639 861.837 88.0874C861.636 87.5943 861.366 87.1763 860.929 86.7589C860.491 86.3414 860.052 86.0852 859.534 85.8938C859.033 85.7084 858.461 85.5812 857.623 85.5454C856.783 85.5091 856.515 85.5 854.376 85.5C852.237 85.5 851.969 85.5085 851.128 85.5454Z" fill="#222222"/>
</g>
<g clip-path="url(#clip1_834_156)">
<path d="M173.675 42H175.985V33.585H180.125V42H182.435V31.5H173.675V42ZM188.659 42.18C191.164 42.18 193.024 40.305 193.024 37.995C193.024 35.655 191.179 33.81 188.689 33.81C186.184 33.81 184.324 35.685 184.324 37.995C184.324 40.335 186.169 42.18 188.659 42.18ZM188.689 40.215C187.429 40.215 186.574 39.18 186.574 37.995C186.574 36.78 187.354 35.775 188.659 35.775C189.919 35.775 190.774 36.81 190.774 37.995C190.774 39.21 189.994 40.215 188.689 40.215ZM196.985 40.05C197.48 38.865 197.57 37.455 197.585 36.09V35.91H199.73V40.05H196.985ZM200.915 42V43.89H202.835L203.105 40.05H202.01V33.96H195.44V34.65C195.44 36.585 195.335 38.61 194.66 40.05H193.79V43.89H195.71L195.875 42H200.915ZM208.348 40.215C207.223 40.215 206.383 39.285 206.383 38.145C206.383 36.975 207.163 36.045 208.318 36.045C209.443 36.045 210.283 36.99 210.283 38.145C210.283 39.3 209.518 40.215 208.348 40.215ZM208.318 42.18C210.763 42.18 212.533 40.335 212.533 38.115C212.533 35.91 210.763 34.26 208.723 34.26C207.073 34.26 206.098 35.085 205.798 35.61C205.858 34.845 206.263 34.02 207.748 33.72L212.158 32.85L211.798 31.05L207.493 31.845C204.478 32.4 204.118 34.965 204.118 37.38C204.118 40.47 205.603 42.18 208.318 42.18ZM218.103 42.18C220.608 42.18 222.468 40.305 222.468 37.995C222.468 35.655 220.623 33.81 218.133 33.81C215.628 33.81 213.768 35.685 213.768 37.995C213.768 40.335 215.613 42.18 218.103 42.18ZM218.133 40.215C216.873 40.215 216.018 39.18 216.018 37.995C216.018 36.78 216.798 35.775 218.103 35.775C219.363 35.775 220.218 36.81 220.218 37.995C220.218 39.21 219.438 40.215 218.133 40.215ZM224.119 44.4H226.399V40.95C226.939 41.595 227.689 42.15 228.904 42.15C230.809 42.15 232.564 40.68 232.564 37.995C232.564 35.28 230.779 33.81 228.904 33.81C227.719 33.81 226.954 34.365 226.399 35.115V33.96H224.119V44.4ZM228.319 40.215C227.254 40.215 226.369 39.33 226.369 37.995C226.369 36.63 227.254 35.745 228.319 35.745C229.384 35.745 230.284 36.63 230.284 37.965C230.284 39.345 229.384 40.215 228.319 40.215ZM239.218 36.51C239.773 35.985 240.523 35.67 241.393 35.67C242.008 35.67 242.443 36.015 242.443 36.435C242.443 36.885 242.008 37.26 241.288 37.26H240.358V38.685H241.303C242.173 38.685 242.638 39.06 242.638 39.51C242.638 39.975 242.143 40.365 241.453 40.365C240.583 40.365 239.698 40.02 239.038 39.45L237.988 40.905C238.903 41.715 240.103 42.18 241.648 42.18C243.553 42.18 244.888 41.115 244.888 39.72C244.888 38.715 244.303 38.145 243.463 37.845C244.168 37.53 244.693 36.99 244.693 36.03C244.693 34.785 243.373 33.855 241.633 33.855C240.238 33.855 239.053 34.365 238.243 35.115L239.218 36.51ZM248.869 42.15C249.979 42.15 250.744 41.745 251.299 41.13V42H253.504V37.335C253.504 36.255 253.234 35.37 252.634 34.77C252.064 34.2 251.164 33.87 249.919 33.87C248.554 33.87 247.684 34.125 246.799 34.515L247.369 36.255C248.104 35.985 248.719 35.82 249.589 35.82C250.729 35.82 251.314 36.345 251.314 37.29V37.425C250.744 37.23 250.159 37.095 249.349 37.095C247.444 37.095 246.109 37.905 246.109 39.66C246.109 41.28 247.354 42.15 248.869 42.15ZM249.559 40.575C248.824 40.575 248.314 40.215 248.314 39.6C248.314 38.85 248.914 38.46 249.889 38.46C250.444 38.46 250.954 38.58 251.344 38.76V39.165C251.344 39.99 250.624 40.575 249.559 40.575ZM262.771 33.96H255.466V42H257.746V35.91H260.491V42H262.771V33.96ZM266.897 33.96H264.587V37.125C264.587 38.805 265.787 39.72 267.392 39.72C268.202 39.72 269.012 39.465 269.567 39.195V42H271.862V33.96H269.567V37.41C269.117 37.635 268.622 37.8 268.007 37.8C267.257 37.8 266.897 37.32 266.897 36.48V33.96ZM276.189 42.15C277.299 42.15 278.064 41.745 278.619 41.13V42H280.824V37.335C280.824 36.255 280.554 35.37 279.954 34.77C279.384 34.2 278.484 33.87 277.239 33.87C275.874 33.87 275.004 34.125 274.119 34.515L274.689 36.255C275.424 35.985 276.039 35.82 276.909 35.82C278.049 35.82 278.634 36.345 278.634 37.29V37.425C278.064 37.23 277.479 37.095 276.669 37.095C274.764 37.095 273.429 37.905 273.429 39.66C273.429 41.28 274.674 42.15 276.189 42.15ZM276.879 40.575C276.144 40.575 275.634 40.215 275.634 39.6C275.634 38.85 276.234 38.46 277.209 38.46C277.764 38.46 278.274 38.58 278.664 38.76V39.165C278.664 39.99 277.944 40.575 276.879 40.575ZM286.581 42.18C288.186 42.18 289.086 41.565 289.866 40.71L288.531 39.36C287.976 39.885 287.451 40.215 286.686 40.215C285.441 40.215 284.646 39.225 284.646 37.995C284.646 36.78 285.456 35.775 286.596 35.775C287.496 35.775 287.976 36.105 288.471 36.57L289.806 35.22C289.056 34.38 288.126 33.81 286.611 33.81C284.151 33.81 282.396 35.7 282.396 37.995C282.396 40.32 284.166 42.18 286.581 42.18ZM297.64 33.96H290.56V35.91H292.945V42H295.255V35.91H297.64V33.96ZM302.694 42.18C304.149 42.18 305.229 41.61 305.979 40.68L304.674 39.525C304.044 40.11 303.489 40.35 302.724 40.35C301.704 40.35 300.984 39.81 300.759 38.775H306.354C306.369 38.565 306.384 38.355 306.384 38.175C306.384 35.895 305.154 33.81 302.469 33.81C300.129 33.81 298.494 35.7 298.494 37.995C298.494 40.485 300.279 42.18 302.694 42.18ZM300.729 37.35C300.909 36.315 301.524 35.64 302.469 35.64C303.429 35.64 304.029 36.33 304.164 37.35H300.729ZM315.568 33.96H313.423L310.288 38.655V33.96H308.083V42H310.228L313.363 37.32V42H315.568V33.96ZM311.893 33.195C313.273 33.195 314.203 32.355 314.413 30.915L313.078 30.675C312.883 31.29 312.523 31.68 311.893 31.68C311.263 31.68 310.903 31.29 310.708 30.675L309.373 30.915C309.583 32.355 310.513 33.195 311.893 33.195Z" fill="#222222"/>
<path d="M355.89 44.19H357.975L358.125 42H364.695V44.19H366.63L366.93 39.915H365.67V31.5H358.035V32.73C358.035 36.315 357.66 38.1 356.88 39.915H355.89V44.19ZM363.36 33.585V39.915H359.31C359.91 38.46 360.255 36.87 360.255 34.65V33.585H363.36ZM372.248 42.18C374.753 42.18 376.613 40.305 376.613 37.995C376.613 35.655 374.768 33.81 372.278 33.81C369.773 33.81 367.913 35.685 367.913 37.995C367.913 40.335 369.758 42.18 372.248 42.18ZM372.278 40.215C371.018 40.215 370.163 39.18 370.163 37.995C370.163 36.78 370.943 35.775 372.248 35.775C373.508 35.775 374.363 36.81 374.363 37.995C374.363 39.21 373.583 40.215 372.278 40.215ZM382.059 42.18C383.664 42.18 384.564 41.565 385.344 40.71L384.009 39.36C383.454 39.885 382.929 40.215 382.164 40.215C380.919 40.215 380.124 39.225 380.124 37.995C380.124 36.78 380.934 35.775 382.074 35.775C382.974 35.775 383.454 36.105 383.949 36.57L385.284 35.22C384.534 34.38 383.604 33.81 382.089 33.81C379.629 33.81 377.874 35.7 377.874 37.995C377.874 40.32 379.644 42.18 382.059 42.18ZM393.118 33.96H386.038V35.91H388.423V42H390.733V35.91H393.118V33.96ZM396.642 42.15C397.752 42.15 398.517 41.745 399.072 41.13V42H401.277V37.335C401.277 36.255 401.007 35.37 400.407 34.77C399.837 34.2 398.937 33.87 397.692 33.87C396.327 33.87 395.457 34.125 394.572 34.515L395.142 36.255C395.877 35.985 396.492 35.82 397.362 35.82C398.502 35.82 399.087 36.345 399.087 37.29V37.425C398.517 37.23 397.932 37.095 397.122 37.095C395.217 37.095 393.882 37.905 393.882 39.66C393.882 41.28 395.127 42.15 396.642 42.15ZM397.332 40.575C396.597 40.575 396.087 40.215 396.087 39.6C396.087 38.85 396.687 38.46 397.662 38.46C398.217 38.46 398.727 38.58 399.117 38.76V39.165C399.117 39.99 398.397 40.575 397.332 40.575ZM403.239 33.96V42H407.634C409.494 42 410.634 41.175 410.634 39.81C410.634 38.685 410.034 38.085 409.059 37.785C409.749 37.485 410.334 36.945 410.334 35.97C410.334 34.71 409.269 33.96 407.649 33.96H403.239ZM405.489 37.185V35.64H407.124C407.784 35.64 408.054 35.985 408.054 36.375C408.054 36.84 407.739 37.185 407.094 37.185H405.489ZM405.489 40.215V38.625H407.229C408.009 38.625 408.324 38.97 408.324 39.405C408.324 39.885 407.994 40.215 407.289 40.215H405.489ZM412.233 42H414.513V40.065L415.548 38.94L417.693 42H420.393L417.063 37.26L420.018 33.96H417.393L414.513 37.26V33.96H412.233V42ZM423.683 42.15C424.793 42.15 425.558 41.745 426.113 41.13V42H428.318V37.335C428.318 36.255 428.048 35.37 427.448 34.77C426.878 34.2 425.978 33.87 424.733 33.87C423.368 33.87 422.498 34.125 421.613 34.515L422.183 36.255C422.918 35.985 423.533 35.82 424.403 35.82C425.543 35.82 426.128 36.345 426.128 37.29V37.425C425.558 37.23 424.973 37.095 424.163 37.095C422.258 37.095 420.923 37.905 420.923 39.66C420.923 41.28 422.168 42.15 423.683 42.15ZM424.373 40.575C423.638 40.575 423.128 40.215 423.128 39.6C423.128 38.85 423.728 38.46 424.703 38.46C425.258 38.46 425.768 38.58 426.158 38.76V39.165C426.158 39.99 425.438 40.575 424.373 40.575Z" fill="#222222"/>
<path d="M467.503 42H469.813V38.79L471.028 37.53L474.283 42H477.058L472.588 35.955L476.863 31.5H474.073L469.813 36.09V31.5H467.503V42ZM480.5 42.15C481.61 42.15 482.375 41.745 482.93 41.13V42H485.135V37.335C485.135 36.255 484.865 35.37 484.265 34.77C483.695 34.2 482.795 33.87 481.55 33.87C480.185 33.87 479.315 34.125 478.43 34.515L479 36.255C479.735 35.985 480.35 35.82 481.22 35.82C482.36 35.82 482.945 36.345 482.945 37.29V37.425C482.375 37.23 481.79 37.095 480.98 37.095C479.075 37.095 477.74 37.905 477.74 39.66C477.74 41.28 478.985 42.15 480.5 42.15ZM481.19 40.575C480.455 40.575 479.945 40.215 479.945 39.6C479.945 38.85 480.545 38.46 481.52 38.46C482.075 38.46 482.585 38.58 482.975 38.76V39.165C482.975 39.99 482.255 40.575 481.19 40.575ZM487.097 42H489.377V40.065L490.412 38.94L492.557 42H495.257L491.927 37.26L494.882 33.96H492.257L489.377 37.26V33.96H487.097V42ZM500.764 42H503.044V40.065L504.079 38.94L506.224 42H508.924L505.594 37.26L508.549 33.96H505.924L503.044 37.26V33.96H500.764V42ZM511.854 44.445C513.219 44.445 513.879 43.83 514.494 42.195L517.584 33.96H515.214L513.459 39.435L511.629 33.96H509.214L512.364 42.03C512.169 42.435 511.959 42.555 511.569 42.555C511.269 42.555 510.894 42.42 510.594 42.24L509.829 43.89C510.414 44.235 511.029 44.445 511.854 44.445ZM526.233 33.96H518.928V42H521.208V35.91H523.953V42H526.233V33.96ZM535.759 33.96H533.614L530.479 38.655V33.96H528.274V42H530.419L533.554 37.32V42H535.759V33.96ZM544.08 33.96H537V35.91H539.385V42H541.695V35.91H544.08V33.96ZM545.325 42H549.375C551.31 42 552.465 40.965 552.465 39.27C552.465 37.47 551.115 36.615 549.255 36.615H547.605V33.96H545.325V42ZM549.03 38.34C549.78 38.34 550.17 38.685 550.17 39.24C550.17 39.855 549.795 40.2 549.045 40.2H547.605V38.34H549.03Z" fill="#222222"/>
<path d="M594.942 42.18C598.182 42.18 600.537 39.735 600.537 36.75C600.537 33.735 598.212 31.32 594.972 31.32C591.732 31.32 589.377 33.765 589.377 36.75C589.377 39.765 591.702 42.18 594.942 42.18ZM594.972 40.05C593.112 40.05 591.792 38.55 591.792 36.75C591.792 34.92 593.082 33.45 594.942 33.45C596.802 33.45 598.122 34.95 598.122 36.75C598.122 38.58 596.832 40.05 594.972 40.05ZM609.651 33.96H602.346V42H604.626V35.91H607.371V42H609.651V33.96ZM612.652 33.96C612.652 39.66 612.202 40.155 611.347 40.155C611.242 40.155 610.957 40.125 610.867 40.11L610.717 41.955C611.017 42.03 611.572 42.09 611.872 42.09C613.882 42.09 614.797 41.235 614.797 35.91H616.837V42H619.117V33.96H612.652ZM623.435 42.15C624.545 42.15 625.31 41.745 625.865 41.13V42H628.07V37.335C628.07 36.255 627.8 35.37 627.2 34.77C626.63 34.2 625.73 33.87 624.485 33.87C623.12 33.87 622.25 34.125 621.365 34.515L621.935 36.255C622.67 35.985 623.285 35.82 624.155 35.82C625.295 35.82 625.88 36.345 625.88 37.29V37.425C625.31 37.23 624.725 37.095 623.915 37.095C622.01 37.095 620.675 37.905 620.675 39.66C620.675 41.28 621.92 42.15 623.435 42.15ZM624.125 40.575C623.39 40.575 622.88 40.215 622.88 39.6C622.88 38.85 623.48 38.46 624.455 38.46C625.01 38.46 625.52 38.58 625.91 38.76V39.165C625.91 39.99 625.19 40.575 624.125 40.575ZM636.317 33.96H629.237V35.91H631.622V42H633.932V35.91H636.317V33.96ZM639.841 42.15C640.951 42.15 641.716 41.745 642.271 41.13V42H644.476V37.335C644.476 36.255 644.206 35.37 643.606 34.77C643.036 34.2 642.136 33.87 640.891 33.87C639.526 33.87 638.656 34.125 637.771 34.515L638.341 36.255C639.076 35.985 639.691 35.82 640.561 35.82C641.701 35.82 642.286 36.345 642.286 37.29V37.425C641.716 37.23 641.131 37.095 640.321 37.095C638.416 37.095 637.081 37.905 637.081 39.66C637.081 41.28 638.326 42.15 639.841 42.15ZM640.531 40.575C639.796 40.575 639.286 40.215 639.286 39.6C639.286 38.85 639.886 38.46 640.861 38.46C641.416 38.46 641.926 38.58 642.316 38.76V39.165C642.316 39.99 641.596 40.575 640.531 40.575Z" fill="#222222"/>
<path d="M684.635 44.19H686.72L686.87 42H693.44V44.19H695.375L695.675 39.915H694.415V31.5H686.78V32.73C686.78 36.315 686.405 38.1 685.625 39.915H684.635V44.19ZM692.105 33.585V39.915H688.055C688.655 38.46 689 36.87 689 34.65V33.585H692.105ZM700.993 42.18C703.498 42.18 705.358 40.305 705.358 37.995C705.358 35.655 703.513 33.81 701.023 33.81C698.518 33.81 696.658 35.685 696.658 37.995C696.658 40.335 698.503 42.18 700.993 42.18ZM701.023 40.215C699.763 40.215 698.908 39.18 698.908 37.995C698.908 36.78 699.688 35.775 700.993 35.775C702.253 35.775 703.108 36.81 703.108 37.995C703.108 39.21 702.328 40.215 701.023 40.215ZM712.874 35.91V33.96H707.009V42H709.289V35.91H712.874ZM718.059 42.18C720.564 42.18 722.424 40.305 722.424 37.995C722.424 35.655 720.579 33.81 718.089 33.81C715.584 33.81 713.724 35.685 713.724 37.995C713.724 40.335 715.569 42.18 718.059 42.18ZM718.089 40.215C716.829 40.215 715.974 39.18 715.974 37.995C715.974 36.78 716.754 35.775 718.059 35.775C719.319 35.775 720.174 36.81 720.174 37.995C720.174 39.21 719.394 40.215 718.089 40.215ZM724.075 33.96V42H728.47C730.33 42 731.47 41.175 731.47 39.81C731.47 38.685 730.87 38.085 729.895 37.785C730.585 37.485 731.17 36.945 731.17 35.97C731.17 34.71 730.105 33.96 728.485 33.96H724.075ZM726.325 37.185V35.64H727.96C728.62 35.64 728.89 35.985 728.89 36.375C728.89 36.84 728.575 37.185 727.93 37.185H726.325ZM726.325 40.215V38.625H728.065C728.845 38.625 729.16 38.97 729.16 39.405C729.16 39.885 728.83 40.215 728.125 40.215H726.325ZM737.014 42.18C739.519 42.18 741.379 40.305 741.379 37.995C741.379 35.655 739.534 33.81 737.044 33.81C734.539 33.81 732.679 35.685 732.679 37.995C732.679 40.335 734.524 42.18 737.014 42.18ZM737.044 40.215C735.784 40.215 734.929 39.18 734.929 37.995C734.929 36.78 735.709 35.775 737.014 35.775C738.274 35.775 739.129 36.81 739.129 37.995C739.129 39.21 738.349 40.215 737.044 40.215ZM743.03 44.4H745.31V40.95C745.85 41.595 746.6 42.15 747.815 42.15C749.72 42.15 751.475 40.68 751.475 37.995C751.475 35.28 749.69 33.81 747.815 33.81C746.63 33.81 745.865 34.365 745.31 35.115V33.96H743.03V44.4ZM747.23 40.215C746.165 40.215 745.28 39.33 745.28 37.995C745.28 36.63 746.165 35.745 747.23 35.745C748.295 35.745 749.195 36.63 749.195 37.965C749.195 39.345 748.295 40.215 747.23 40.215ZM761.594 42.18C764.099 42.18 765.959 40.305 765.959 37.995C765.959 35.655 764.114 33.81 761.624 33.81C759.119 33.81 757.259 35.685 757.259 37.995C757.259 40.335 759.104 42.18 761.594 42.18ZM761.624 40.215C760.364 40.215 759.509 39.18 759.509 37.995C759.509 36.78 760.289 35.775 761.594 35.775C762.854 35.775 763.709 36.81 763.709 37.995C763.709 39.21 762.929 40.215 761.624 40.215ZM775.485 35.775C776.595 35.775 777.195 36.675 777.195 37.995C777.195 39.36 776.61 40.2 775.485 40.2C775.08 40.2 774.81 40.065 774.51 39.84V36.165C774.81 35.94 775.08 35.775 775.485 35.775ZM774.51 44.4V41.46C774.825 41.805 775.5 42.105 776.22 42.105C778.125 42.105 779.475 40.605 779.475 37.995C779.475 35.4 778.125 33.87 776.205 33.87C775.485 33.87 774.825 34.245 774.51 34.62V31.5H772.215V34.62C771.9 34.245 771.24 33.87 770.52 33.87C768.6 33.87 767.25 35.4 767.25 37.995C767.25 40.605 768.6 42.105 770.505 42.105C771.225 42.105 771.9 41.805 772.215 41.46V44.4H774.51ZM771.24 35.775C771.645 35.775 771.915 35.94 772.215 36.165V39.84C771.915 40.065 771.645 40.2 771.24 40.2C770.115 40.2 769.53 39.36 769.53 37.995C769.53 36.675 770.13 35.775 771.24 35.775ZM784.97 42.18C786.425 42.18 787.505 41.61 788.255 40.68L786.95 39.525C786.32 40.11 785.765 40.35 785 40.35C783.98 40.35 783.26 39.81 783.035 38.775H788.63C788.645 38.565 788.66 38.355 788.66 38.175C788.66 35.895 787.43 33.81 784.745 33.81C782.405 33.81 780.77 35.7 780.77 37.995C780.77 40.485 782.555 42.18 784.97 42.18ZM783.005 37.35C783.185 36.315 783.8 35.64 784.745 35.64C785.705 35.64 786.305 36.33 786.44 37.35H783.005ZM790.359 44.4H792.639V40.95C793.179 41.595 793.929 42.15 795.144 42.15C797.049 42.15 798.804 40.68 798.804 37.995C798.804 35.28 797.019 33.81 795.144 33.81C793.959 33.81 793.194 34.365 792.639 35.115V33.96H790.359V44.4ZM794.559 40.215C793.494 40.215 792.609 39.33 792.609 37.995C792.609 36.63 793.494 35.745 794.559 35.745C795.624 35.745 796.524 36.63 796.524 37.965C796.524 39.345 795.624 40.215 794.559 40.215ZM806.766 33.96H799.686V35.91H802.071V42H804.381V35.91H806.766V33.96ZM808.01 42H812.06C813.995 42 815.15 40.965 815.15 39.27C815.15 37.47 813.8 36.615 811.94 36.615H810.29V33.96H808.01V42ZM811.715 38.34C812.465 38.34 812.855 38.685 812.855 39.24C812.855 39.855 812.48 40.2 811.73 40.2H810.29V38.34H811.715ZM816.215 42H818.495V33.96H816.215V42Z" fill="#222222"/>
<path d="M860.943 42H863.253V33.585H867.393V42H869.703V31.5H860.943V42ZM875.927 42.18C878.432 42.18 880.292 40.305 880.292 37.995C880.292 35.655 878.447 33.81 875.957 33.81C873.452 33.81 871.592 35.685 871.592 37.995C871.592 40.335 873.437 42.18 875.927 42.18ZM875.957 40.215C874.697 40.215 873.842 39.18 873.842 37.995C873.842 36.78 874.622 35.775 875.927 35.775C877.187 35.775 878.042 36.81 878.042 37.995C878.042 39.21 877.262 40.215 875.957 40.215ZM882.903 33.96C882.903 39.66 882.453 40.155 881.598 40.155C881.493 40.155 881.208 40.125 881.118 40.11L880.968 41.955C881.268 42.03 881.823 42.09 882.123 42.09C884.133 42.09 885.048 41.235 885.048 35.91H887.088V42H889.368V33.96H882.903ZM898.891 33.96H896.746L893.611 38.655V33.96H891.406V42H893.551L896.686 37.32V42H898.891V33.96ZM907.212 33.96H900.132V35.91H902.517V42H904.827V35.91H907.212V33.96ZM915.942 33.96H913.797L910.662 38.655V33.96H908.457V42H910.602L913.737 37.32V42H915.942V33.96ZM917.978 42H920.258V40.065L921.293 38.94L923.438 42H926.138L922.808 37.26L925.763 33.96H923.138L920.258 37.26V33.96H917.978V42ZM929.428 42.15C930.538 42.15 931.303 41.745 931.858 41.13V42H934.063V37.335C934.063 36.255 933.793 35.37 933.193 34.77C932.623 34.2 931.723 33.87 930.478 33.87C929.113 33.87 928.243 34.125 927.358 34.515L927.928 36.255C928.663 35.985 929.278 35.82 930.148 35.82C931.288 35.82 931.873 36.345 931.873 37.29V37.425C931.303 37.23 930.718 37.095 929.908 37.095C928.003 37.095 926.668 37.905 926.668 39.66C926.668 41.28 927.913 42.15 929.428 42.15ZM930.118 40.575C929.383 40.575 928.873 40.215 928.873 39.6C928.873 38.85 929.473 38.46 930.448 38.46C931.003 38.46 931.513 38.58 931.903 38.76V39.165C931.903 39.99 931.183 40.575 930.118 40.575ZM940.522 42H942.802V40.065L943.837 38.94L945.982 42H948.682L945.352 37.26L948.307 33.96H945.682L942.802 37.26V33.96H940.522V42ZM953.637 42.18C956.142 42.18 958.002 40.305 958.002 37.995C958.002 35.655 956.157 33.81 953.667 33.81C951.162 33.81 949.302 35.685 949.302 37.995C949.302 40.335 951.147 42.18 953.637 42.18ZM953.667 40.215C952.407 40.215 951.552 39.18 951.552 37.995C951.552 36.78 952.332 35.775 953.637 35.775C954.897 35.775 955.752 36.81 955.752 37.995C955.752 39.21 954.972 40.215 953.667 40.215ZM967.018 33.96H964.738V37.05H961.933V33.96H959.653V42H961.933V38.925H964.738V42H967.018V33.96ZM976.932 35.775C978.042 35.775 978.642 36.675 978.642 37.995C978.642 39.36 978.057 40.2 976.932 40.2C976.527 40.2 976.257 40.065 975.957 39.84V36.165C976.257 35.94 976.527 35.775 976.932 35.775ZM975.957 44.4V41.46C976.272 41.805 976.947 42.105 977.667 42.105C979.572 42.105 980.922 40.605 980.922 37.995C980.922 35.4 979.572 33.87 977.652 33.87C976.932 33.87 976.272 34.245 975.957 34.62V31.5H973.662V34.62C973.347 34.245 972.687 33.87 971.967 33.87C970.047 33.87 968.697 35.4 968.697 37.995C968.697 40.605 970.047 42.105 971.952 42.105C972.672 42.105 973.347 41.805 973.662 41.46V44.4H975.957ZM972.687 35.775C973.092 35.775 973.362 35.94 973.662 36.165V39.84C973.362 40.065 973.092 40.2 972.687 40.2C971.562 40.2 970.977 39.36 970.977 37.995C970.977 36.675 971.577 35.775 972.687 35.775ZM990.092 33.96H987.947L984.812 38.655V33.96H982.607V42H984.752L987.887 37.32V42H990.092V33.96ZM994.438 40.05C994.933 38.865 995.023 37.455 995.038 36.09V35.91H997.183V40.05H994.438ZM998.368 42V43.89H1000.29L1000.56 40.05H999.463V33.96H992.893V34.65C992.893 36.585 992.788 38.61 992.113 40.05H991.243V43.89H993.163L993.328 42H998.368ZM1005.61 42.18C1007.06 42.18 1008.14 41.61 1008.89 40.68L1007.59 39.525C1006.96 40.11 1006.4 40.35 1005.64 40.35C1004.62 40.35 1003.9 39.81 1003.67 38.775H1009.27C1009.28 38.565 1009.3 38.355 1009.3 38.175C1009.3 35.895 1008.07 33.81 1005.38 33.81C1003.04 33.81 1001.41 35.7 1001.41 37.995C1001.41 40.485 1003.19 42.18 1005.61 42.18ZM1003.64 37.35C1003.82 36.315 1004.44 35.64 1005.38 35.64C1006.34 35.64 1006.94 36.33 1007.08 37.35H1003.64ZM1018.36 33.96H1016.08V37.05H1013.28V33.96H1011V42H1013.28V38.925H1016.08V42H1018.36V33.96ZM1026.61 43.89H1028.53L1028.8 40.05H1027.7V33.96H1025.42V40.05H1022.68V33.96H1020.4V42H1026.61V43.89ZM1037.52 33.96H1035.38L1032.24 38.655V33.96H1030.04V42H1032.18L1035.32 37.32V42H1037.52V33.96ZM1041.84 42.15C1042.95 42.15 1043.72 41.745 1044.27 41.13V42H1046.48V37.335C1046.48 36.255 1046.21 35.37 1045.61 34.77C1045.04 34.2 1044.14 33.87 1042.89 33.87C1041.53 33.87 1040.66 34.125 1039.77 34.515L1040.34 36.255C1041.08 35.985 1041.69 35.82 1042.56 35.82C1043.7 35.82 1044.29 36.345 1044.29 37.29V37.425C1043.72 37.23 1043.13 37.095 1042.32 37.095C1040.42 37.095 1039.08 37.905 1039.08 39.66C1039.08 41.28 1040.33 42.15 1041.84 42.15ZM1042.53 40.575C1041.8 40.575 1041.29 40.215 1041.29 39.6C1041.29 38.85 1041.89 38.46 1042.86 38.46C1043.42 38.46 1043.93 38.58 1044.32 38.76V39.165C1044.32 39.99 1043.6 40.575 1042.53 40.575ZM1049.4 33.96C1049.4 39.66 1048.95 40.155 1048.09 40.155C1047.99 40.155 1047.7 40.125 1047.61 40.11L1047.46 41.955C1047.76 42.03 1048.32 42.09 1048.62 42.09C1050.63 42.09 1051.54 41.235 1051.54 35.91H1053.58V42H1055.86V33.96H1049.4ZM1057.9 42H1061.95C1063.88 42 1065.04 40.965 1065.04 39.27C1065.04 37.47 1063.69 36.615 1061.83 36.615H1060.18V33.96H1057.9V42ZM1061.6 38.34C1062.35 38.34 1062.74 38.685 1062.74 39.24C1062.74 39.855 1062.37 40.2 1061.62 40.2H1060.18V38.34H1061.6ZM1073.72 33.96H1071.44V37.05H1068.63V33.96H1066.35V42H1068.63V38.925H1071.44V42H1073.72V33.96ZM1079.7 42.18C1082.21 42.18 1084.07 40.305 1084.07 37.995C1084.07 35.655 1082.22 33.81 1079.73 33.81C1077.23 33.81 1075.37 35.685 1075.37 37.995C1075.37 40.335 1077.21 42.18 1079.7 42.18ZM1079.73 40.215C1078.47 40.215 1077.62 39.18 1077.62 37.995C1077.62 36.78 1078.4 35.775 1079.7 35.775C1080.96 35.775 1081.82 36.81 1081.82 37.995C1081.82 39.21 1081.04 40.215 1079.73 40.215ZM1089.51 42.18C1091.12 42.18 1092.02 41.565 1092.8 40.71L1091.46 39.36C1090.91 39.885 1090.38 40.215 1089.62 40.215C1088.37 40.215 1087.58 39.225 1087.58 37.995C1087.58 36.78 1088.39 35.775 1089.53 35.775C1090.43 35.775 1090.91 36.105 1091.4 36.57L1092.74 35.22C1091.99 34.38 1091.06 33.81 1089.54 33.81C1087.08 33.81 1085.33 35.7 1085.33 37.995C1085.33 40.32 1087.1 42.18 1089.51 42.18ZM1100.57 33.96H1093.49V35.91H1095.88V42H1098.19V35.91H1100.57V33.96ZM1109.3 33.96H1107.16L1104.02 38.655V33.96H1101.82V42H1103.96L1107.1 37.32V42H1109.3V33.96Z" fill="#222222"/>
<path d="M1148.59 42H1150.9V38.85H1152.66C1155.01 38.85 1156.9 37.59 1156.9 35.16C1156.9 32.985 1155.39 31.5 1152.88 31.5H1148.59V42ZM1150.9 36.795V33.585H1152.69C1153.84 33.585 1154.56 34.14 1154.56 35.175C1154.56 36.105 1153.89 36.795 1152.73 36.795H1150.9ZM1162.18 42.18C1163.64 42.18 1164.72 41.61 1165.47 40.68L1164.16 39.525C1163.53 40.11 1162.98 40.35 1162.21 40.35C1161.19 40.35 1160.47 39.81 1160.25 38.775H1165.84C1165.86 38.565 1165.87 38.355 1165.87 38.175C1165.87 35.895 1164.64 33.81 1161.96 33.81C1159.62 33.81 1157.98 35.7 1157.98 37.995C1157.98 40.485 1159.77 42.18 1162.18 42.18ZM1160.22 37.35C1160.4 36.315 1161.01 35.64 1161.96 35.64C1162.92 35.64 1163.52 36.33 1163.65 37.35H1160.22ZM1167.57 42H1169.85V40.065L1170.89 38.94L1173.03 42H1175.73L1172.4 37.26L1175.36 33.96H1172.73L1169.85 37.26V33.96H1167.57V42ZM1176.74 33.96V42H1181.14C1183 42 1184.14 41.175 1184.14 39.81C1184.14 38.685 1183.54 38.085 1182.56 37.785C1183.25 37.485 1183.84 36.945 1183.84 35.97C1183.84 34.71 1182.77 33.96 1181.15 33.96H1176.74ZM1178.99 37.185V35.64H1180.63C1181.29 35.64 1181.56 35.985 1181.56 36.375C1181.56 36.84 1181.24 37.185 1180.6 37.185H1178.99ZM1178.99 40.215V38.625H1180.73C1181.51 38.625 1181.83 38.97 1181.83 39.405C1181.83 39.885 1181.5 40.215 1180.79 40.215H1178.99ZM1193.22 33.96H1191.08L1187.94 38.655V33.96H1185.74V42H1187.88L1191.02 37.32V42H1193.22V33.96ZM1195.74 36.51C1196.29 35.985 1197.04 35.67 1197.91 35.67C1198.53 35.67 1198.96 36.015 1198.96 36.435C1198.96 36.885 1198.53 37.26 1197.81 37.26H1196.88V38.685H1197.82C1198.69 38.685 1199.16 39.06 1199.16 39.51C1199.16 39.975 1198.66 40.365 1197.97 40.365C1197.1 40.365 1196.22 40.02 1195.56 39.45L1194.51 40.905C1195.42 41.715 1196.62 42.18 1198.17 42.18C1200.07 42.18 1201.41 41.115 1201.41 39.72C1201.41 38.715 1200.82 38.145 1199.98 37.845C1200.69 37.53 1201.21 36.99 1201.21 36.03C1201.21 34.785 1199.89 33.855 1198.15 33.855C1196.76 33.855 1195.57 34.365 1194.76 35.115L1195.74 36.51ZM1210.6 33.96H1208.45L1205.32 38.655V33.96H1203.11V42H1205.26L1208.39 37.32V42H1210.6V33.96ZM1218.92 33.96H1211.84V35.91H1214.22V42H1216.53V35.91H1218.92V33.96ZM1220.16 42H1224.21C1226.15 42 1227.3 40.965 1227.3 39.27C1227.3 37.47 1225.95 36.615 1224.09 36.615H1222.44V33.96H1220.16V42ZM1223.87 38.34C1224.62 38.34 1225.01 38.685 1225.01 39.24C1225.01 39.855 1224.63 40.2 1223.88 40.2H1222.44V38.34H1223.87ZM1228.37 42H1230.65V33.96H1228.37V42Z" fill="#222222"/>
<path d="M1269.78 42H1272.09V38.79L1273.31 37.53L1276.56 42H1279.34L1274.87 35.955L1279.14 31.5H1276.35L1272.09 36.09V31.5H1269.78V42ZM1284.45 42.18C1286.95 42.18 1288.81 40.305 1288.81 37.995C1288.81 35.655 1286.97 33.81 1284.48 33.81C1281.97 33.81 1280.11 35.685 1280.11 37.995C1280.11 40.335 1281.96 42.18 1284.45 42.18ZM1284.48 40.215C1283.22 40.215 1282.36 39.18 1282.36 37.995C1282.36 36.78 1283.14 35.775 1284.45 35.775C1285.71 35.775 1286.56 36.81 1286.56 37.995C1286.56 39.21 1285.78 40.215 1284.48 40.215ZM1297.83 33.96H1295.55V37.05H1292.74V33.96H1290.46V42H1292.74V38.925H1295.55V42H1297.83V33.96ZM1306.15 33.96H1299.07V35.91H1301.46V42H1303.77V35.91H1306.15V33.96ZM1309.68 42.15C1310.79 42.15 1311.55 41.745 1312.11 41.13V42H1314.31V37.335C1314.31 36.255 1314.04 35.37 1313.44 34.77C1312.87 34.2 1311.97 33.87 1310.73 33.87C1309.36 33.87 1308.49 34.125 1307.61 34.515L1308.18 36.255C1308.91 35.985 1309.53 35.82 1310.4 35.82C1311.54 35.82 1312.12 36.345 1312.12 37.29V37.425C1311.55 37.23 1310.97 37.095 1310.16 37.095C1308.25 37.095 1306.92 37.905 1306.92 39.66C1306.92 41.28 1308.16 42.15 1309.68 42.15ZM1310.37 40.575C1309.63 40.575 1309.12 40.215 1309.12 39.6C1309.12 38.85 1309.72 38.46 1310.7 38.46C1311.25 38.46 1311.76 38.58 1312.15 38.76V39.165C1312.15 39.99 1311.43 40.575 1310.37 40.575ZM1316.27 42H1318.55V40.065L1319.59 38.94L1321.73 42H1324.43L1321.1 37.26L1324.06 33.96H1321.43L1318.55 37.26V33.96H1316.27V42ZM1331.73 33.96H1324.65V35.91H1327.03V42H1329.34V35.91H1331.73V33.96ZM1332.97 42H1337.02C1338.96 42 1340.11 40.965 1340.11 39.27C1340.11 37.47 1338.76 36.615 1336.9 36.615H1335.25V33.96H1332.97V42ZM1336.68 38.34C1337.43 38.34 1337.82 38.685 1337.82 39.24C1337.82 39.855 1337.44 40.2 1336.69 40.2H1335.25V38.34H1336.68ZM1341.18 42H1343.46V33.96H1341.18V42Z" fill="#222222"/>
<path d="M1383.01 42H1385.36L1386.32 39.645H1390.76L1391.72 42H1394.14L1389.64 31.425H1387.51L1383.01 42ZM1387.15 37.605L1388.54 34.2L1389.94 37.605H1387.15ZM1395.52 42H1397.8V40.065L1398.83 38.94L1400.98 42H1403.68L1400.35 37.26L1403.3 33.96H1400.68L1397.8 37.26V33.96H1395.52V42ZM1410.9 43.89H1412.82L1413.09 40.05H1411.99V33.96H1409.71V40.05H1406.97V33.96H1404.69V42H1410.9V43.89ZM1421.81 33.96H1419.67L1416.53 38.655V33.96H1414.33V42H1416.47L1419.61 37.32V42H1421.81V33.96ZM1431.33 33.96H1429.19L1426.05 38.655V33.96H1423.85V42H1425.99L1429.13 37.32V42H1431.33V33.96Z" fill="#222222"/>
</g>
<rect x="799.5" y="142" width="66" height="1" fill="#777777"/>
<path d="M724.42 140.028H725.291L725.473 138H732.857V140.028H733.715L733.871 137.064H732.688V128.9H726.734V130.486C726.734 133.437 726.227 135.673 725.356 137.064H724.42V140.028ZM726.513 137.064C727.267 135.816 727.722 133.372 727.722 131.019V129.836H731.661V137.064H726.513ZM735.209 138H736.171L740.175 132.683V138H741.176V131.279H740.201L736.21 136.596V131.279H735.209V138ZM745.542 138.156C747.206 138.156 748.207 137.207 748.207 136.128C748.207 135.244 747.7 134.737 746.959 134.477C747.531 134.243 748.038 133.762 748.038 132.93C748.038 131.89 747.115 131.136 745.607 131.136C744.619 131.136 743.709 131.435 743.007 131.981L743.501 132.683C744.086 132.215 744.879 132.007 745.542 132.007C746.374 132.007 746.998 132.384 746.998 133.008C746.998 133.71 746.387 134.165 745.503 134.165H744.593V134.984H745.49C746.582 134.984 747.18 135.413 747.18 136.089C747.18 136.869 746.387 137.285 745.516 137.285C744.71 137.285 743.943 136.986 743.267 136.414L742.76 137.155C743.579 137.818 744.476 138.156 745.542 138.156ZM752.064 138.143C753.247 138.143 754.014 137.597 754.482 136.999V138H755.47V133.892C755.47 133.034 755.236 132.384 754.768 131.916C754.287 131.435 753.546 131.175 752.597 131.175C751.609 131.175 750.894 131.409 750.153 131.747L750.452 132.566C751.076 132.28 751.7 132.085 752.493 132.085C753.754 132.085 754.482 132.709 754.482 133.905V134.113C753.884 133.944 753.286 133.827 752.428 133.827C750.725 133.827 749.555 134.581 749.555 136.024C749.555 137.428 750.803 138.143 752.064 138.143ZM752.259 137.337C751.349 137.337 750.569 136.843 750.569 135.998C750.569 135.166 751.284 134.62 752.532 134.62C753.351 134.62 754.001 134.763 754.495 134.906V135.53C754.495 136.596 753.494 137.337 752.259 137.337ZM757.591 138H758.553L762.557 132.683V138H763.558V131.279H762.583L758.592 136.596V131.279H757.591V138ZM760.542 130.317C761.517 130.317 762.219 129.654 762.375 128.731L761.686 128.588C761.53 129.147 761.179 129.498 760.542 129.498C759.905 129.498 759.554 129.147 759.398 128.588L758.709 128.731C758.865 129.654 759.567 130.317 760.542 130.317ZM765.792 138H766.793V135.062H770.667V138H771.668V131.279H770.667V134.178H766.793V131.279H765.792V138ZM777.529 134.594H787.513V133.593H777.529V134.594ZM794.991 137.467L795.758 137.025L794.003 134.62L795.758 132.241L794.991 131.812L792.885 134.581V134.685L794.991 137.467ZM797.89 137.467L798.644 137.025L796.889 134.62L798.644 132.241L797.89 131.812L795.784 134.581V134.685L797.89 137.467ZM800.695 138H807.338V137.064H801.722V133.879H806.688V132.943H801.722V129.836H807.273V128.9H800.695V138ZM812.264 138.156C813.525 138.156 814.331 137.61 815.007 136.856L814.344 136.245C813.811 136.817 813.174 137.259 812.316 137.259C810.912 137.259 809.846 136.102 809.846 134.646C809.846 133.177 810.886 132.02 812.251 132.02C813.161 132.02 813.785 132.449 814.318 133.008L814.955 132.332C814.331 131.669 813.538 131.136 812.264 131.136C810.301 131.136 808.819 132.748 808.819 134.646C808.819 136.557 810.301 138.156 812.264 138.156ZM818.287 138H819.301V132.163H821.706V131.279H815.882V132.163H818.287V138ZM823.162 138H826.074C827.608 138 828.609 137.155 828.609 135.816C828.609 134.399 827.413 133.801 825.957 133.801H824.163V131.279H823.162V138ZM824.163 137.116V134.659H825.944C826.971 134.659 827.595 135.062 827.595 135.842C827.595 136.687 826.984 137.116 825.983 137.116H824.163ZM834.224 138H835.225L840.646 130.447V138H841.66V128.9H840.685L835.251 136.453V128.9H834.224V138ZM843.07 139.677H843.889L844.071 138H849.505V139.677H850.337L850.493 137.116H849.479V131.279H844.695V132.449C844.695 134.711 844.344 136.115 843.798 137.116H843.07V139.677ZM844.864 137.116C845.332 136.245 845.657 134.763 845.657 133.099V132.163H848.478V137.116H844.864ZM854.804 138.156C856.078 138.156 856.897 137.649 857.573 136.895L856.949 136.336C856.403 136.908 855.753 137.285 854.83 137.285C853.647 137.285 852.607 136.466 852.464 135.049H857.794C857.807 134.893 857.807 134.789 857.807 134.698C857.807 132.722 856.663 131.136 854.674 131.136C852.815 131.136 851.45 132.696 851.45 134.646C851.45 136.739 852.958 138.156 854.804 138.156ZM852.464 134.243C852.607 132.943 853.491 131.981 854.648 131.981C855.974 131.981 856.676 133.021 856.793 134.243H852.464ZM858.961 138H860.196C860.82 137.194 861.431 136.375 862.055 135.556H863.914V138H864.915V131.279H861.756C860.157 131.279 859.221 132.137 859.221 133.372C859.221 134.464 860.014 135.166 861.015 135.4L858.961 138ZM861.834 134.711C860.898 134.711 860.222 134.23 860.222 133.411C860.222 132.644 860.807 132.163 861.808 132.163H863.914V134.711H861.834ZM867.515 135.426H868.074L868.386 129.641V128.9H867.216V129.641L867.515 135.426ZM867.203 138H868.399V136.635H867.203V138ZM871.084 137.467L873.19 134.685V134.581L871.084 131.812L870.33 132.254L872.085 134.646L870.33 137.038L871.084 137.467ZM873.983 137.467L876.089 134.685V134.581L873.983 131.812L873.216 132.254L874.971 134.646L873.216 137.038L873.983 137.467Z" fill="#777777"/>
<defs>
<clipPath id="clip0_834_156">
<rect width="138" height="30" fill="white" transform="translate(731 78)"/>
</clipPath>
<clipPath id="clip1_834_156">
<rect width="1264" height="20" fill="white" transform="translate(170 28)"/>
</clipPath>
</defs>
</svg>
